<svg xmlns="http://www.w3.org/2000/svg" width="20" height="20" fill="none"><g stroke="#101828" stroke-linecap="round" stroke-linejoin="round" stroke-width="1.5" clip-path="url(#a)"><path d="M17.857.714H2.143A1.429 1.429 0 0 0 .714 2.143v7.143a1.429 1.429 0 0 0 1.429 1.428h15.714a1.428 1.428 0 0 0 1.429-1.428V2.143A1.428 1.428 0 0 0 17.857.714Z"/><path d="M15.714 10.714V7.857a1.428 1.428 0 0 0-1.428-1.428H5.714a1.429 1.429 0 0 0-1.428 1.428v2.857m-.715 7.143h.143a2 2 0 0 0 2-2v-1.571m10.715 3.571h-.143a2 2 0 0 1-2-2v-1.571m-4.286 5v-5"/></g><defs><clipPath id="a"><path fill="#fff" d="M0 0h20v20H0z"/></clipPath></defs></svg>