<svg xmlns="http://www.w3.org/2000/svg" width="20" height="20" fill="none"><g fill="#101828" fill-rule="evenodd" clip-path="url(#a)" clip-rule="evenodd"><path d="M4.167 2.5a1.667 1.667 0 1 0 0 3.333 1.667 1.667 0 0 0 0-3.333ZM.833 4.167a3.333 3.333 0 1 1 6.667 0 3.333 3.333 0 0 1-6.667 0ZM15.833 14.167a1.667 1.667 0 1 0 0 3.333 1.667 1.667 0 0 0 0-3.333ZM12.5 15.833a3.333 3.333 0 1 1 6.667 0 3.333 3.333 0 0 1-6.667 0Z"/><path d="M8.333 4.167c0-.46.373-.834.834-.834h5.25c2.581 0 3.512 3.378 1.242 4.643l-9.67 5.503A.81.81 0 0 0 6.416 15h4.416a.833.833 0 0 1 0 1.667H6.417c-2.582 0-3.512-3.378-1.242-4.643l9.67-5.503A.81.81 0 0 0 14.417 5h-5.25a.833.833 0 0 1-.834-.833Z"/></g><defs><clipPath id="a"><path fill="#fff" d="M0 0h20v20H0z"/></clipPath></defs></svg>