<?xml version="1.0" standalone="no"?>
<!DOCTYPE svg PUBLIC "-//W3C//DTD SVG 20010904//EN"
        "http://www.w3.org/TR/2001/REC-SVG-20010904/DTD/svg10.dtd">
<svg version="1.0" xmlns="http://www.w3.org/2000/svg"
     width="868.000000pt" height="760.000000pt" viewBox="0 0 868.000000 760.000000"
     preserveAspectRatio="xMidYMid meet">

    <defs>
        <linearGradient id="gradient" gradientTransform="rotate(90)">
            <stop offset="0%" stop-color="#f64f59"/>
            <stop offset="50%" stop-color="#c471ed"/>
            <stop offset="100%" stop-color="#12c2e9"/>
        </linearGradient>
    </defs>

    <g transform="translate(0.000000,760.000000) scale(0.100000,-0.100000)"
       fill="url(#gradient)" stroke="none">
        <path d="M4872 7379 c-133 -28 -275 -83 -560 -216 -136 -63 -328 -152 -427
-198 -155 -71 -793 -370 -1125 -527 -58 -28 -132 -63 -165 -78 -534 -248
-1597 -764 -1647 -798 -103 -71 -187 -197 -208 -313 -7 -37 -10 -388 -8 -1005
l3 -949 27 -57 c35 -75 97 -140 161 -169 49 -23 64 -24 242 -24 105 0 309 2
455 5 l265 5 3 -91 c3 -68 0 -94 -10 -100 -14 -9 -33 -10 -858 -48 -711 -33
-730 -34 -724 -49 6 -13 71 -71 219 -196 49 -42 110 -95 136 -118 l46 -43 133
26 c73 14 134 23 136 22 2 -2 -13 -26 -32 -54 -86 -121 -134 -275 -134 -434 0
-168 43 -281 151 -394 55 -58 65 -75 58 -89 -35 -61 -89 -374 -89 -505 1 -176
58 -332 157 -431 82 -81 153 -113 269 -119 139 -7 242 29 342 122 l44 40 37
-22 c66 -41 197 -101 257 -118 35 -10 115 -18 199 -21 119 -4 153 -2 228 16
148 35 276 99 389 193 33 27 49 36 52 26 2 -7 12 -44 21 -81 39 -152 158 -273
310 -313 66 -18 207 -18 292 1 37 8 484 117 993 243 973 242 1614 399 1865
459 933 221 1017 247 1130 361 103 104 155 211 186 385 11 60 15 68 38 73 203
40 290 82 402 194 138 137 182 234 263 575 25 104 44 190 43 191 -11 7 -227
84 -236 84 -7 0 -10 4 -6 9 3 5 59 22 125 38 l120 28 0 368 c0 202 -2 367 -4
367 -3 0 -125 -27 -273 -59 -147 -33 -285 -63 -306 -67 l-39 -7 7 49 c9 58 8
57 60 72 150 42 226 178 227 407 2 127 -14 177 -68 225 l-34 29 0 203 c0 192
-2 206 -24 253 -53 114 -162 185 -419 274 -184 63 -185 64 -192 106 -3 19 -8
52 -11 72 -3 23 -18 49 -40 71 -32 32 -38 34 -89 30 l-54 -5 -142 143 c-79 79
-140 146 -136 150 3 3 59 22 124 41 503 145 655 222 735 369 98 182 25 436
-181 627 -123 114 -232 170 -466 240 -312 94 -1733 496 -1807 511 -110 23
-317 20 -436 -5z m468 -155 c115 -26 200 -49 330 -88 139 -41 541 -157 600
-172 30 -8 100 -28 155 -44 55 -16 195 -56 310 -89 449 -127 500 -143 575
-181 100 -50 186 -123 254 -213 66 -87 94 -150 102 -225 l5 -57 -18 51 c-46
125 -174 287 -291 368 -70 48 -55 26 35 -54 142 -125 236 -272 237 -369 1 -56
-28 -115 -75 -152 -37 -29 -86 -49 -75 -30 4 7 1 9 -8 5 -8 -3 -41 0 -73 6
-87 17 -98 21 -83 30 17 10 -33 22 -67 15 -20 -4 -23 -3 -9 3 13 6 -2 9 -45 9
-107 1 -366 57 -340 73 12 7 -46 13 -122 12 -34 0 -36 1 -20 14 21 16 3 18
-29 3 -18 -8 -46 -5 -118 11 -52 12 -103 22 -113 22 -9 -1 -15 3 -12 7 7 12
-30 21 -83 21 -40 0 -202 30 -430 79 -155 34 -172 40 -173 61 -1 11 -2 23 -3
28 -1 4 -6 39 -10 77 -15 129 -57 234 -152 382 -30 46 -54 86 -54 88 0 2 19
-2 42 -11 65 -23 56 -9 -11 16 -33 12 -68 31 -78 43 -18 20 -17 20 2 12 11 -4
34 -10 50 -12 24 -3 20 1 -18 17 -27 11 -54 17 -60 14 -7 -4 -9 -3 -4 1 4 5
-5 21 -20 37 -30 32 -28 34 13 14 16 -8 40 -17 54 -20 14 -4 1 5 -29 19 -29
14 -60 25 -67 25 -8 0 -14 3 -14 8 0 4 -18 20 -40 37 -22 16 -39 34 -37 39 3
10 -140 67 -233 94 -72 21 144 0 250 -24z m-298 -15 c102 -22 157 -56 263
-163 99 -100 191 -226 247 -337 35 -69 68 -198 68 -266 0 -65 -30 -163 -64
-208 -55 -72 -70 -78 -800 -307 -207 -64 -227 -75 -257 -135 l-24 -48 -3
-1197 c-2 -1004 -5 -1198 -16 -1198 -8 0 -16 10 -19 21 -3 12 -6 547 -7 1189
0 1058 1 1173 16 1217 35 104 67 125 299 197 372 117 654 210 695 231 94 48
132 119 132 245 0 103 -43 216 -132 353 -76 117 -197 250 -268 296 -132 83
-295 81 -512 -7 -41 -17 -154 -68 -250 -115 -96 -46 -222 -107 -280 -135 -203
-98 -348 -165 -660 -309 -391 -179 -536 -248 -765 -358 -99 -48 -270 -129
-380 -180 -110 -51 -249 -116 -310 -145 -60 -29 -166 -79 -235 -112 -69 -33
-136 -64 -149 -69 -13 -5 -21 -12 -18 -15 3 -3 31 8 63 24 33 16 82 37 109 47
28 11 66 28 85 40 19 11 46 26 60 32 14 7 79 37 145 69 66 31 172 79 235 106
63 28 189 86 280 130 381 184 499 240 645 306 256 115 567 258 700 322 614
294 653 312 797 361 156 53 237 57 350 15 59 -21 91 -41 141 -86 129 -118 248
-290 297 -430 33 -95 32 -207 -3 -276 -14 -28 -38 -59 -53 -69 -30 -19 -508
-180 -728 -244 -232 -68 -273 -95 -311 -206 -15 -45 -17 -103 -16 -541 l1
-492 -45 -6 c-41 -7 -45 -10 -45 -34 0 -15 4 -22 8 -16 8 13 46 34 61 34 8 0
11 -105 11 -335 l0 -335 -45 0 c-25 0 -45 5 -45 10 0 6 18 10 40 10 l40 0 0
201 0 202 -30 -6 c-27 -6 -30 -4 -30 18 0 20 5 25 25 25 33 0 35 37 3 42 -31
4 -27 20 8 38 l29 15 -37 3 c-33 3 -58 26 -43 40 3 3 5 0 5 -5 0 -8 9 -8 30 0
40 15 38 27 -5 27 l-35 0 -2 433 c-1 237 -2 481 -2 541 -1 92 2 113 17 133 16
20 16 23 3 23 -9 0 -16 5 -16 11 0 6 7 9 15 5 13 -4 14 52 12 445 -3 431 -4
450 -23 477 -11 15 -37 35 -57 45 -30 15 -44 17 -79 9 -48 -11 -568 -247
-1153 -522 -226 -106 -295 -139 -465 -217 -332 -153 -655 -305 -665 -313 -5
-5 -50 -26 -100 -48 -49 -22 -164 -76 -255 -120 -91 -44 -230 -111 -310 -149
-80 -38 -152 -78 -160 -88 -10 -12 -15 -41 -15 -89 0 -58 4 -77 23 -103 21
-30 28 -33 75 -33 51 -1 51 -1 27 -16 -54 -32 44 -2 137 42 50 24 94 44 98 44
4 0 40 16 81 35 41 20 80 33 86 29 7 -4 8 -3 4 4 -5 8 1 12 16 12 13 0 52 14
88 31 36 17 55 28 42 26 -12 -3 -20 -1 -17 3 3 5 20 11 38 15 39 8 149 45 160
55 5 4 -4 6 -20 4 -21 -3 -16 2 22 20 54 27 87 35 43 10 -36 -19 -35 -25 1
-14 16 4 32 6 34 4 10 -10 77 30 73 43 -3 7 1 13 10 13 8 0 12 4 9 10 -4 6 1
7 11 3 10 -4 15 -2 11 4 -9 14 249 115 443 174 84 26 210 79 210 90 0 4 16 13
35 19 19 6 37 15 40 20 3 5 -19 0 -50 -11 -30 -10 -66 -19 -80 -19 -14 0 -25
-4 -25 -10 0 -5 6 -10 13 -10 6 0 -7 -12 -31 -26 -24 -14 -46 -24 -49 -21 -3
3 12 15 34 26 21 11 31 20 23 20 -8 0 -26 -6 -40 -14 -29 -16 -44 -19 -36 -6
8 12 92 51 110 51 15 0 176 72 363 161 56 27 108 49 116 49 9 0 16 -16 21 -46
3 -26 6 -358 6 -738 l0 -691 -206 -47 c-167 -39 -229 -58 -335 -104 -71 -32
-124 -61 -118 -65 6 -3 -12 -12 -40 -20 -32 -8 -46 -16 -39 -21 10 -6 10 -8 0
-8 -8 0 -96 -38 -195 -84 -271 -124 -348 -150 -632 -211 -192 -41 -195 -42
-195 -70 0 -14 -3 -25 -8 -25 -4 0 -52 16 -107 36 -196 71 -291 102 -330 108
-32 5 -22 -1 45 -30 164 -69 266 -107 382 -140 65 -19 159 -48 210 -65 84 -28
101 -31 174 -26 45 3 119 13 165 21 46 8 140 22 209 31 69 9 179 24 245 35
216 33 205 33 205 10 0 -11 -4 -20 -10 -20 -14 0 -426 -57 -575 -80 -324 -49
-299 -48 -384 -16 -42 15 -114 39 -161 53 -204 60 -316 102 -538 204 l-43 19
3 -332 c3 -311 4 -335 23 -365 35 -56 58 -63 207 -63 73 0 237 5 363 10 127 5
267 10 312 12 l83 2 5 30 c2 17 9 72 15 121 13 103 19 127 28 121 4 -2 79 7
167 20 88 13 205 26 260 30 98 6 101 6 125 -19 14 -14 43 -70 64 -124 21 -54
44 -113 52 -131 14 -32 14 -33 -8 -30 -18 3 -26 18 -50 101 -34 120 -61 174
-93 189 -27 12 -139 2 -343 -32 -125 -21 -132 -24 -132 -48 0 -10 -7 -27 -15
-38 -12 -19 -19 -62 -29 -194 l-3 -35 -73 -7 c-129 -11 -801 -30 -844 -24 -60
10 -110 47 -137 103 l-24 48 -2 855 c-1 470 2 899 7 952 10 120 48 200 119
255 51 39 295 161 906 450 110 52 245 117 300 143 391 188 1193 566 1455 685
63 29 167 78 230 108 214 102 695 325 770 357 137 58 256 73 372 49z m-834
-456 c-44 -53 -49 -114 -12 -148 18 -17 22 -25 12 -25 -20 0 -56 67 -64 120
-8 48 9 70 54 70 23 0 24 -2 10 -17z m72 -34 c0 -6 -4 -7 -10 -4 -5 3 -10 11
-10 16 0 6 5 7 10 4 6 -3 10 -11 10 -16z m-170 -23 c0 -18 3 -48 6 -65 4 -21
3 -31 -5 -31 -7 0 -9 5 -6 10 9 15 -12 12 -28 -4 -8 -8 -63 -37 -123 -64 -60
-28 -210 -98 -334 -157 -218 -104 -432 -197 -457 -198 -7 0 -10 -3 -8 -7 2 -4
-21 -19 -53 -33 -64 -29 -104 -47 -566 -264 -181 -85 -363 -168 -405 -184 -42
-17 -209 -93 -372 -170 -163 -76 -370 -170 -460 -209 -90 -38 -171 -74 -181
-80 -12 -6 -18 -5 -22 6 -10 27 -7 71 7 82 6 5 152 76 322 157 171 81 362 172
425 203 105 50 422 196 710 327 63 29 194 90 290 135 202 95 486 226 815 376
127 57 275 126 330 153 55 27 103 50 108 50 4 1 7 -14 7 -33z m170 -31 c7 -9
10 -18 7 -21 -10 -11 -37 5 -37 21 0 19 14 19 30 0z m-121 -109 c-2 -2 -76
-36 -164 -76 -88 -40 -185 -83 -215 -97 -90 -41 -125 -55 -119 -48 14 13 465
223 483 224 11 1 17 -1 15 -3z m1540 -136 c1 -36 5 -83 9 -104 l7 -39 810
-163 c793 -159 932 -188 942 -197 2 -3 -4 -8 -15 -11 -27 -9 -156 14 -907 164
-357 71 -689 137 -737 146 -49 9 -94 22 -102 28 -11 8 -15 47 -18 156 -2 80
-1 132 3 115 4 -16 7 -59 8 -95z m-1479 -1173 c0 -639 1 -1324 1 -1522 0 -198
2 -372 4 -387 2 -16 -1 -30 -6 -33 -5 -4 -64 -8 -131 -10 -68 -3 -257 -10
-421 -16 -163 -7 -300 -10 -303 -6 -10 10 -18 141 -8 134 6 -3 9 39 8 101 -2
137 -5 157 -15 102 -4 -26 -5 10 -2 85 2 72 5 131 6 131 1 1 13 5 25 9 l24 7
-7 -254 c-4 -139 -12 -259 -17 -265 -8 -10 7 -12 68 -8 115 7 598 25 677 25
l67 0 0 1548 c0 852 3 1552 7 1556 4 4 11 -3 15 -14 4 -12 8 -544 8 -1183z
m-63 289 c2 -452 1 -836 -2 -853 -4 -25 -11 -33 -28 -34 l-22 -2 23 -4 c21 -4
22 -9 22 -107 0 -107 -5 -121 -45 -128 -18 -3 -20 3 -20 52 0 53 1 55 30 61
l30 7 -31 1 -31 1 -3 428 c-2 235 -4 630 -4 879 -1 440 -2 452 -22 479 -11 15
-32 31 -46 35 -26 7 -102 -14 -183 -51 -143 -64 -308 -131 -313 -126 -3 3 10
12 29 20 86 36 225 98 234 105 6 5 51 24 101 44 91 37 154 47 154 26 0 -14 93
-2 99 13 2 6 8 3 14 -7 6 -12 11 -314 14 -839z m-567 764 c-8 -5 -19 -10 -25
-10 -5 0 -3 5 5 10 8 5 20 10 25 10 6 0 3 -5 -5 -10z m431 -30 c18 -24 19 -65
19 -829 1 -652 -1 -806 -12 -812 -10 -7 -9 -9 5 -9 9 0 17 -7 17 -15 0 -8 -8
-15 -17 -16 -15 0 -15 -2 -3 -7 15 -7 20 -35 8 -47 -4 -4 -3 -17 2 -30 5 -12
6 -40 3 -63 l-5 -40 -92 -17 c-50 -9 -147 -27 -216 -40 -69 -13 -160 -29 -202
-36 -43 -6 -81 -12 -85 -13 -4 0 -8 18 -9 42 -2 31 2 45 13 49 13 5 13 7 -1
15 -26 14 -19 37 17 53 28 13 29 15 5 10 l-26 -5 -7 93 c-3 50 -5 405 -3 787
3 730 3 730 47 757 10 6 85 38 167 71 82 33 185 76 229 96 91 40 120 41 146 6z
m-471 16 c0 -2 -7 -7 -16 -10 -8 -3 -12 -2 -9 4 6 10 25 14 25 6z m-140 -66
c-19 -11 -39 -19 -45 -19 -5 0 6 8 25 19 19 11 40 19 45 19 6 0 -6 -8 -25 -19z
m85 -60 c-3 -5 -11 -10 -16 -10 -6 0 -7 5 -4 10 3 6 11 10 16 10 6 0 7 -4 4
-10z m-245 -10 c-8 -5 -19 -10 -25 -10 -5 0 -3 5 5 10 8 5 20 10 25 10 6 0 3
-5 -5 -10z m1057 -42 c-2 -13 -4 -5 -4 17 -1 22 1 32 4 23 2 -10 2 -28 0 -40z
m-865 20 c-11 -13 -25 -36 -31 -51 -7 -19 -11 -227 -11 -628 0 -563 -1 -599
-17 -600 -17 -1 -17 -2 0 -6 15 -4 17 -21 17 -173 l0 -168 -25 -4 c-14 -3 -27
-2 -30 2 -7 12 -3 1431 5 1515 4 44 8 63 8 42 1 -25 6 -36 13 -31 6 3 9 19 7
35 -3 16 0 29 5 29 4 0 22 14 39 30 34 35 52 41 20 8z m-382 -73 c-14 -8 -29
-14 -35 -14 -5 0 1 6 15 14 14 8 30 14 35 14 6 0 -1 -6 -15 -14z m208 -1539
c-2 -977 -6 -1250 -15 -1253 -10 -4 -13 281 -13 1337 0 738 3 1367 7 1398 17
133 23 -283 21 -1482z m2369 1458 c-3 -3 -12 -4 -19 -1 -8 3 -5 6 6 6 11 1 17
-2 13 -5z m56 -11 c-7 -2 -19 -2 -25 0 -7 3 -2 5 12 5 14 0 19 -2 13 -5z m60
-10 c-7 -2 -21 -2 -30 0 -10 3 -4 5 12 5 17 0 24 -2 18 -5z m108 -13 c30 -5
122 -21 204 -35 237 -39 427 -73 600 -106 286 -54 330 -63 314 -67 -9 -1 -90
11 -180 27 -90 17 -229 42 -309 55 -355 61 -735 133 -704 135 11 1 45 -3 75
-9z m-1544 -20 c1 -11 -2 -20 -8 -20 -5 0 -9 9 -9 20 0 11 4 20 8 20 4 0 8 -9
9 -20z m-1756 -210 c-23 -19 -149 -66 -157 -58 -4 5 151 75 170 77 5 1 -1 -8
-13 -19z m2932 -14 c-3 -4 4 -5 16 -1 43 13 203 -164 433 -479 48 -65 99 -127
114 -136 14 -10 54 -23 88 -29 119 -23 312 -83 402 -125 76 -36 92 -48 98 -71
9 -34 0 -41 -65 -48 -63 -8 -159 -35 -181 -51 -28 -21 -35 -141 -13 -222 14
-54 28 -77 72 -125 30 -32 69 -68 88 -79 35 -22 51 -48 37 -62 -4 -4 -66 -13
-138 -19 l-130 -11 -57 56 c-80 78 -119 96 -212 96 -91 0 -202 -24 -268 -57
-26 -13 -53 -21 -60 -17 -7 4 -9 4 -5 -1 4 -4 -10 -27 -32 -51 -21 -23 -55
-74 -75 -113 -26 -52 -41 -71 -55 -71 -11 0 -20 2 -20 3 0 16 46 138 60 162
72 116 236 194 444 211 56 5 84 2 128 -13 31 -11 55 -16 52 -12 -11 18 -112
39 -185 39 -198 0 -363 -71 -452 -195 -12 -16 -35 -65 -53 -108 -28 -72 -34
-80 -60 -82 -16 -2 -96 -10 -179 -18 -82 -9 -188 -18 -235 -21 l-85 -5 69 14
c38 8 71 17 73 19 2 2 -30 4 -72 5 -70 1 -76 0 -85 -21 -7 -18 -9 -11 -11 37
-2 33 -4 69 -5 80 -1 11 -2 54 -3 95 -1 55 -4 71 -12 63 -8 -8 -10 -55 -7
-152 4 -129 3 -141 -13 -141 -10 0 -19 -6 -22 -12 -25 -71 -20 998 7 1232 22
198 42 301 62 319 15 15 16 14 10 -3 -14 -41 -26 -230 -28 -467 -2 -224 -1
-248 16 -274 21 -32 23 -32 291 4 162 22 464 38 430 22 -11 -5 -58 -18 -105
-29 -70 -16 -78 -20 -45 -20 22 -1 70 2 108 7 50 5 67 4 67 -5 0 -7 -29 -17
-72 -24 -40 -6 -116 -19 -168 -29 -87 -17 -91 -19 -45 -20 44 -1 207 16 348
35 39 6 47 4 47 -9 0 -9 -10 -19 -22 -21 -116 -26 -116 -26 -45 -20 l67 6 1
-44 c0 -24 3 -61 7 -83 16 -82 24 8 29 315 l5 305 -27 29 c-31 33 -181 229
-237 310 -82 118 -137 140 -279 111 -102 -20 -227 -59 -256 -80 -12 -9 -27
-34 -34 -57 -12 -46 -30 -586 -22 -664 4 -39 3 -47 -7 -37 -22 21 -26 84 -19
353 8 335 24 406 99 445 30 16 201 53 279 62 31 3 58 7 61 10 8 8 98 -2 93
-11z m-3353 -56 c-8 -5 -19 -10 -25 -10 -5 0 -3 5 5 10 8 5 20 10 25 10 6 0 3
-5 -5 -10z m4847 -319 c150 -152 273 -279 273 -283 0 -4 -19 -1 -41 7 -23 8
-98 27 -168 41 -242 51 -286 62 -256 63 40 1 150 -15 253 -35 45 -10 85 -15
88 -11 3 3 -23 36 -58 73 -140 150 -354 372 -402 417 l-51 49 45 -23 c30 -15
135 -114 317 -298z m-1538 278 c17 -6 31 -17 31 -24 0 -9 -25 -12 -100 -11
-142 1 -143 1 -143 -181 0 -337 1 -343 26 -344 17 -1 16 -3 -8 -8 -65 -16 -65
-16 -65 252 0 223 2 245 20 274 12 20 32 36 52 42 46 13 149 13 187 0z m392
-111 c128 -148 263 -327 254 -337 -10 -9 -86 74 -198 216 -62 78 -120 156
-131 173 -18 31 -18 32 1 22 11 -6 44 -39 74 -74z m-353 17 c6 -5 13 -21 17
-35 l6 -25 -18 22 c-16 21 -24 22 -93 17 -41 -3 -76 -9 -78 -14 -2 -5 -10 -6
-17 -3 -12 4 -15 -29 -17 -203 -3 -190 -5 -209 -20 -212 -17 -3 -18 12 -18
215 0 120 4 223 8 229 4 6 14 14 22 17 24 10 198 3 208 -8z m-3463 -49 c-16
-7 -32 -11 -35 -9 -8 7 24 23 45 22 15 0 13 -3 -10 -13z m4813 -73 c102 -101
237 -253 225 -253 -5 0 -22 15 -38 33 -62 71 -122 136 -198 215 -44 45 -77 82
-73 82 3 0 41 -35 84 -77z m-2060 -1070 c-3 -803 -6 -966 -20 -942 -2 2 -1
472 1 1044 3 719 7 1008 13 935 5 -58 8 -524 6 -1037z m731 917 c-1 -98 2
-183 5 -189 5 -7 56 -11 147 -11 98 0 139 -3 139 -12 0 -8 -38 -9 -146 -5 -80
4 -149 9 -155 12 -5 4 -9 89 -9 201 0 135 3 193 11 189 6 -5 9 -69 8 -185z
m-3674 161 c-6 -5 -21 -12 -35 -15 l-25 -7 25 15 c28 17 50 21 35 7z m2828 -8
c-7 -2 -19 -2 -25 0 -7 3 -2 5 12 5 14 0 19 -2 13 -5z m25 -60 c-10 -2 -26 -2
-35 0 -10 3 -2 5 17 5 19 0 27 -2 18 -5z m7 -43 c16 -7 13 -9 -17 -9 -21 -1
-38 4 -38 9 0 12 27 12 55 0z m-3419 -27 c-43 -23 -96 -44 -96 -38 0 6 100 53
115 54 6 0 -3 -7 -19 -16z m5623 -27 c-2 -2 -13 8 -23 22 l-19 27 24 -22 c12
-12 21 -24 18 -27z m-2196 7 c22 -13 2 -20 -33 -11 -48 12 -55 33 -7 23 17 -4
35 -9 40 -12z m1782 -22 c87 -13 140 -29 167 -50 23 -19 22 -19 -34 0 -32 10
-119 26 -195 34 -242 27 -275 34 -128 29 72 -2 157 -8 190 -13z m-1781 -32
c17 -15 0 -20 -39 -11 -53 11 -61 36 -9 26 22 -3 43 -10 48 -15z m2247 -6 c13
-16 12 -17 -3 -4 -10 7 -18 15 -18 17 0 8 8 3 21 -13z m-2242 -49 c2 -2 2 -6
0 -9 -8 -7 -79 7 -79 16 0 7 70 1 79 -7z m-1 -53 c3 -9 -5 -11 -34 -5 -57 10
-66 24 -14 21 24 -2 46 -9 48 -16z m1792 4 c218 -14 266 -19 545 -51 166 -19
325 -55 395 -88 63 -30 49 -29 -110 8 -108 26 -350 66 -395 65 -62 0 46 -25
337 -78 356 -65 441 -91 525 -165 24 -21 42 -40 40 -42 -5 -5 -145 25 -167 35
-8 4 -37 8 -65 10 -27 1 -54 6 -60 11 -6 5 -20 9 -30 9 -11 0 -58 7 -105 16
-47 8 -121 17 -165 20 -44 3 -87 8 -95 10 -8 2 -62 9 -120 15 -58 6 -116 14
-129 17 -22 5 -23 4 -16 -27 l7 -33 -68 6 c-38 4 -84 7 -101 7 -28 0 -33 4
-33 23 0 62 -172 149 -440 222 l-85 24 55 0 c30 1 156 -6 280 -14z m-1790 -45
c0 -5 -20 -10 -45 -10 -25 0 -45 5 -45 10 0 6 20 10 45 10 25 0 45 -4 45 -10z
m-25 -51 l-30 -7 28 -1 c15 0 27 -5 27 -10 0 -13 -73 -1 -82 13 -5 7 4 13 25
16 43 8 72 -2 32 -11z m20 -60 c4 -6 5 -12 3 -14 -7 -7 -88 8 -88 16 0 13 78
11 85 -2z m5 -66 c0 -15 -71 -5 -82 11 -14 20 -8 22 37 12 25 -6 45 -16 45
-23z m-6 -42 c4 -5 -12 -7 -36 -4 -57 8 -61 13 -10 13 22 0 43 -4 46 -9z m1
-40 c3 -5 2 -12 -2 -14 -13 -7 -73 4 -73 14 0 12 67 12 75 0z m2169 -27 c14
-5 16 -32 16 -190 l0 -184 -91 0 c-63 0 -88 3 -83 11 4 8 1 8 -12 1 -18 -9
-19 -5 -19 59 l0 69 93 0 c72 0 92 3 92 14 0 28 -286 32 -369 5 -18 -6 -11 -6
22 -3 32 4 47 3 47 -5 0 -14 32 -11 42 4 12 16 15 3 22 -79 5 -69 4 -77 -10
-72 -9 3 -32 6 -51 6 -69 0 -136 100 -149 222 -11 111 -1 125 106 148 46 9
316 5 344 -6z m-2164 -24 c0 -7 -14 -8 -37 -4 -52 9 -54 14 -5 14 23 0 42 -5
42 -10z m-26 -40 c41 -15 30 -28 -14 -17 -22 6 -40 15 -40 19 0 11 23 10 54
-2z m2767 -46 c118 -13 222 -24 232 -24 14 0 27 -30 12 -30 -3 0 -109 12 -237
26 -142 15 -236 30 -240 37 -4 7 -8 21 -8 31 0 19 0 19 14 1 11 -15 47 -22
227 -41z m-2762 -4 c12 0 21 -4 21 -10 0 -12 -6 -12 -53 1 -21 5 -35 14 -32
20 4 5 13 5 25 -1 10 -5 28 -10 39 -10z m3181 -206 l0 -227 -67 7 c-38 3 -176
13 -308 21 -273 17 -325 23 -325 35 0 4 -17 6 -39 3 -25 -4 -41 -1 -46 8 -6 9
-4 11 8 6 9 -3 17 -2 19 2 4 10 593 -31 604 -41 10 -11 62 -10 69 1 3 6 17 6
34 1 l29 -8 6 101 c3 56 6 134 5 172 -2 96 0 145 6 145 3 0 5 -102 5 -226z
m-3553 63 c-2 -23 -3 -1 -3 48 0 50 1 68 3 42 2 -26 2 -67 0 -90z m378 92 c11
-11 0 -11 -44 -3 -17 4 -31 10 -31 15 0 10 61 0 75 -12z m3062 -66 c-2 -16 -4
-5 -4 22 0 28 2 40 4 28 2 -13 2 -35 0 -50z m-3051 9 c-8 -7 -76 8 -76 17 0 5
18 4 40 -1 23 -6 39 -13 36 -16z m2261 -94 c-2 -24 -4 -5 -4 42 0 47 2 66 4
43 2 -24 2 -62 0 -85z m326 22 c144 0 379 -22 384 -37 3 -8 3 -16 0 -19 -3 -3
-87 2 -188 11 -101 9 -204 18 -229 20 l-45 3 -1 59 c-1 49 0 50 3 11 l4 -48
72 0z m-2597 34 c18 -14 16 -15 -21 -9 -51 8 -70 25 -29 25 17 0 39 -7 50 -16z
m2629 5 c10 -15 -1 -23 -20 -15 -9 3 -13 10 -10 16 8 13 22 13 30 -1z m-3927
-16 c-2 -10 -14 -19 -26 -21 -21 -3 -22 -1 -12 17 13 26 43 28 38 4z m3629 -5
c-3 -8 -6 -5 -6 6 -1 11 2 17 5 13 3 -3 4 -12 1 -19z m730 -150 c-2 -29 -3 -6
-3 52 0 58 1 81 3 53 2 -29 2 -77 0 -105z m-3081 132 c15 -6 25 -13 22 -15 -3
-3 -20 1 -39 9 -38 17 -25 21 17 6z m-1278 -32 c-2 -13 -12 -26 -23 -30 -19
-6 -18 -6 3 -7 23 -1 32 -20 10 -22 -10 0 -10 -2 0 -6 6 -2 12 -20 12 -38 0
-31 -3 -34 -27 -32 -24 2 -27 7 -24 27 1 14 8 28 15 32 8 6 8 8 -1 8 -17 0
-11 39 8 51 10 6 10 9 2 9 -7 0 -13 7 -13 15 0 8 9 15 21 15 15 0 20 -5 17
-22z m1296 -14 c27 -10 18 -25 -11 -18 -46 11 -62 23 -31 24 14 0 33 -3 42 -6z
m-1490 -36 c-3 -13 -7 -24 -8 -25 0 0 -84 -17 -186 -37 -285 -57 -319 -69
-341 -131 -11 -31 -17 -35 -47 -35 -59 0 -181 -48 -422 -165 -203 -99 -344
-155 -357 -141 -14 14 790 416 907 454 36 11 119 32 185 46 66 14 149 32 185
39 92 21 92 21 84 -5z m1469 -9 c36 -10 54 -30 20 -24 -61 12 -73 16 -73 25 0
12 6 12 53 -1z m2149 -46 c-40 -2 -103 -2 -140 0 -37 2 -4 3 73 3 77 0 107 -2
67 -3z m-3622 -13 c0 -13 -41 -22 -76 -18 -26 4 -25 5 16 15 60 14 60 14 60 3z
m1509 -6 c10 -10 -8 -12 -47 -7 -23 3 -42 10 -42 15 0 9 79 2 89 -8z m-1554
-54 c14 -13 30 -40 36 -60 14 -44 8 -245 -7 -260 -6 -6 -40 -15 -75 -20 -135
-20 -376 -50 -402 -50 l-27 0 0 113 c0 191 25 236 143 261 40 8 104 21 142 29
95 21 159 16 190 -13z m233 -302 c-18 -11 -48 -10 -48 2 0 6 11 15 25 20 25 9
25 10 27 157 l2 148 3 -159 c3 -121 0 -161 -9 -168z m1291 316 c17 -4 31 -9
31 -13 0 -10 -79 0 -86 10 -6 11 11 11 55 3z m15 -50 c9 -3 16 -10 16 -16 0
-10 -70 0 -84 13 -11 10 43 12 68 3z m1436 -18 c19 -9 26 -13 15 -10 -11 4
-51 9 -90 11 -123 9 -224 -34 -314 -133 -61 -67 -103 -145 -130 -244 -44 -156
-37 -289 21 -427 44 -106 95 -165 180 -208 78 -39 104 -42 196 -20 88 21 134
47 200 113 91 91 151 226 171 387 l8 70 2 -56 c4 -206 -120 -414 -304 -507
-52 -26 -155 -46 -199 -39 -61 10 -146 59 -196 114 -87 95 -130 219 -130 372
0 176 62 352 162 457 69 73 96 92 176 121 77 27 172 27 232 -1z m1010 -1 c129
-8 363 -22 520 -31 157 -9 293 -20 302 -25 20 -11 24 -49 6 -49 -7 0 -87 7
-178 15 -388 33 -975 59 -1160 50 -201 -9 -276 -22 -135 -24 l101 -1 2 -27 c2
-16 7 -44 11 -63 l9 -35 1 40 c2 54 21 26 21 -31 l0 -40 313 -13 c392 -16 432
-19 416 -36 -3 -2 -97 0 -209 5 -307 14 -556 16 -641 6 l-76 -8 -38 88 c-20
49 -45 105 -55 124 -10 19 -19 40 -21 45 -9 25 473 31 811 10z m-2437 -35 c4
0 7 -5 7 -10 0 -7 -14 -8 -37 -4 -53 9 -69 27 -18 20 22 -3 43 -5 48 -6z
m1931 -45 c3 -8 1 -15 -3 -15 -5 0 -11 7 -15 15 -3 8 -1 15 3 15 5 0 11 -7 15
-15z m-1934 -5 c0 -5 -18 -10 -40 -10 -22 0 -40 5 -40 10 0 6 18 10 40 10 22
0 40 -4 40 -10z m-551 -29 c22 -14 3 -31 -35 -31 -39 0 -45 16 -11 30 28 11
29 11 46 1z m-94 -24 c-4 -8 -98 -25 -283 -51 -152 -21 -292 -41 -311 -44 -26
-4 -33 -2 -29 9 3 10 82 25 289 56 320 47 340 48 334 30z m650 4 c3 -5 2 -12
-2 -14 -13 -7 -73 4 -73 14 0 12 67 12 75 0z m1105 4 c0 -2 -10 -9 -22 -15
-22 -11 -22 -10 -4 4 21 17 26 19 26 11z m355 -15 c10 -11 16 -20 13 -20 -3 0
-13 9 -23 20 -10 11 -16 20 -13 20 3 0 13 -9 23 -20z m-585 -9 c0 -5 -6 -26
-14 -48 -16 -45 -62 -253 -72 -326 -3 -26 -10 -49 -14 -52 -7 -4 -204 -19
-416 -32 l-111 -6 -27 72 c-34 87 -52 164 -61 257 l-7 71 104 11 c56 7 175 19
263 27 88 8 182 18 209 21 l49 6 -6 -28 c-4 -16 -17 -89 -30 -162 -13 -73 -26
-134 -28 -136 -2 -2 -80 -9 -174 -16 -93 -6 -186 -13 -207 -17 -29 -4 -38 -1
-46 13 -12 24 -42 167 -42 204 0 28 -15 48 -27 36 -9 -9 18 -165 41 -236 l21
-65 58 -3 c71 -4 388 24 398 35 4 4 17 69 29 143 30 188 41 228 59 233 29 8
51 7 51 -2z m-1185 -11 c-3 -5 -19 -10 -36 -10 -16 0 -29 5 -29 10 0 6 16 10
36 10 21 0 33 -4 29 -10z m3295 -86 l0 -84 -38 0 c-22 0 -73 3 -115 6 l-77 7
0 81 0 81 115 -3 115 -3 0 -85z m-3547 56 c-4 -4 -18 -11 -30 -15 -17 -4 -23
-2 -23 9 0 8 10 16 23 18 27 5 42 -1 30 -12z m551 14 c29 -11 16 -24 -24 -24
-29 0 -40 4 -40 15 0 16 35 20 64 9z m-644 -19 c0 -10 -10 -15 -31 -15 -32 0
-191 -23 -441 -64 -105 -17 -138 -19 -138 -10 0 13 13 17 130 35 117 17 454
67 468 68 6 0 12 -6 12 -14z m2036 -40 c47 -28 99 -99 115 -158 25 -93 7 -218
-43 -303 -58 -98 -229 -159 -278 -98 -17 20 -8 27 22 15 29 -11 112 3 144 24
41 27 76 69 103 125 21 46 26 69 26 135 0 68 -5 88 -28 133 -40 75 -94 112
-166 112 -60 0 -129 -26 -170 -63 -24 -21 -24 -21 -10 -1 63 95 196 131 285
79z m-1686 -243 l0 -258 -40 -10 c-32 -9 -40 -8 -45 3 -3 8 -5 126 -5 263 l0
249 23 4 c12 2 32 5 45 6 l22 1 0 -258z m299 237 c-12 -8 -12 -11 1 -19 12 -8
11 -10 -8 -10 -13 0 -20 4 -17 10 4 6 -5 10 -19 10 -14 0 -26 6 -26 13 0 9 12
11 41 9 29 -3 37 -7 28 -13z m-3699 -7 c32 -15 162 -62 324 -118 71 -25 188
-68 260 -96 l131 -51 135 22 c166 28 783 109 789 105 2 -2 2 -7 -2 -10 -6 -6
-215 -37 -502 -74 -93 -12 -219 -32 -279 -45 l-110 -23 -165 58 c-407 143
-620 227 -621 243 0 5 3 7 8 5 4 -2 18 -9 32 -16z m4691 -5 c-10 -9 -11 -8 -5
6 3 10 9 15 12 12 3 -3 0 -11 -7 -18z m2259 -19 c-7 -18 -27 -48 -44 -65 -28
-31 -34 -33 -96 -33 -39 0 -71 -5 -79 -12 -10 -11 -11 -10 -6 4 8 20 35 28 96
28 37 0 50 5 73 29 l27 28 -32 7 c-17 3 -53 6 -80 6 -29 0 -49 5 -49 11 0 7
29 10 90 7 80 -3 91 -1 96 15 3 10 8 16 11 13 3 -3 0 -20 -7 -38z m-5310 14
c0 -4 -53 -16 -117 -25 -65 -9 -189 -28 -276 -42 -168 -26 -208 -30 -170 -15
12 5 86 19 165 31 79 12 190 30 248 39 125 21 150 23 150 12z m1515 -261 c-4
-141 -9 -258 -11 -260 -4 -4 -45 -7 -319 -21 -115 -6 -250 -12 -300 -15 l-90
-5 -3 239 -3 240 33 5 c18 3 143 19 278 36 135 17 257 33 273 36 l27 6 0 -166
c0 -189 -6 -212 -59 -226 -44 -11 -279 -30 -376 -30 -64 0 -74 3 -96 26 -16
17 -26 42 -30 77 l-6 52 -2 -62 c0 -36 3 -63 9 -63 5 0 13 -12 16 -26 l6 -25
197 5 c108 3 238 8 289 12 l92 7 0 208 0 208 33 3 c17 2 36 2 40 0 5 -3 6
-120 2 -261z m3355 148 c58 -3 -1 -4 -130 -2 -232 4 -350 16 -350 35 0 6 10 8
23 4 12 -3 67 -8 122 -11 55 -3 126 -8 158 -10 l57 -5 2 53 1 52 6 -55 6 -55
105 -6z m-4112 83 c2 -7 -7 -12 -23 -12 -24 0 -26 2 -15 15 14 17 31 16 38 -3z
m2268 -33 c-18 -41 -21 -26 -4 22 6 18 13 29 15 23 2 -6 -3 -26 -11 -45z
m-4556 -24 c133 -48 304 -111 445 -164 61 -23 128 -44 150 -47 24 -4 111 6
224 25 101 17 233 36 295 41 61 5 180 19 265 30 84 11 155 19 156 18 1 -2 5
-52 7 -111 3 -59 2 -104 -2 -100 -4 4 -17 34 -30 66 -13 32 -36 69 -53 83 -30
25 -35 26 -117 21 -145 -10 -347 -35 -543 -67 l-188 -31 -107 37 c-59 20 -134
47 -167 59 -33 12 -121 45 -195 73 -268 100 -300 114 -300 123 0 5 12 3 28 -4
15 -8 74 -31 132 -52z m3583 58 c-7 -2 -21 -2 -30 0 -10 3 -4 5 12 5 17 0 24
-2 18 -5z m-1530 -24 c-14 -14 -467 -78 -472 -66 -1 4 -1 10 0 11 2 2 101 16
219 31 118 15 217 29 219 31 2 2 13 4 25 4 14 0 17 -3 9 -11z m1525 4 c-10 -2
-28 -2 -40 0 -13 2 -5 4 17 4 22 1 32 -1 23 -4z m1282 -36 c11 -6 20 -15 20
-20 0 -4 5 -5 10 -2 6 4 9 3 8 -2 -1 -4 6 -29 16 -55 50 -129 -31 -278 -151
-278 -110 0 -168 153 -104 277 20 39 64 86 91 96 21 9 87 -1 110 -16z m-1265
3 c4 -6 -10 -10 -34 -10 -23 0 -41 5 -41 10 0 6 15 10 34 10 19 0 38 -4 41
-10z m1594 -74 c1 -55 -5 -42 -12 24 -3 34 -2 47 3 35 5 -11 9 -38 9 -59z
m-4256 57 c-7 -2 -19 -2 -25 0 -7 3 -2 5 12 5 14 0 19 -2 13 -5z m-118 -28
c-38 -13 -79 -24 -90 -24 -21 1 -4 7 85 34 76 22 79 14 5 -10z m1278 -231 l-6
-152 -161 -12 c-89 -6 -202 -15 -253 -19 l-91 -7 -6 36 c-4 19 -9 103 -13 186
l-6 150 189 24 c104 12 223 28 264 34 l75 12 7 -51 c3 -27 4 -118 1 -201z
m1500 237 c4 -1 7 -6 7 -11 0 -6 -12 -9 -27 -6 -16 2 -36 5 -46 5 -10 1 -16 4
-14 9 4 6 38 7 80 3z m942 -38 c-2 -10 -6 -58 -9 -106 -5 -105 -16 -128 -16
-35 0 80 10 158 20 158 5 0 7 -8 5 -17z m-935 -13 c0 -5 -18 -10 -40 -10 -22
0 -40 5 -40 10 0 6 18 10 40 10 22 0 40 -4 40 -10z m-5 -50 c-3 -5 -22 -10
-41 -10 -19 0 -34 5 -34 10 0 6 18 10 41 10 24 0 38 -4 34 -10z m-148 -72 c-2
-13 -4 -3 -4 22 0 25 2 35 4 23 2 -13 2 -33 0 -45z m1743 2 c0 -33 -3 -60 -7
-60 -5 0 -6 27 -5 60 5 77 12 77 12 0z m-3770 5 c21 -19 41 -59 54 -106 4 -13
-7 2 -24 33 -22 43 -37 59 -58 65 -44 11 -355 -26 -519 -62 -16 -4 -23 -1 -23
9 0 15 7 17 120 37 286 50 414 57 450 24z m2170 15 c0 -12 -27 -12 -55 0 -16
7 -13 9 18 9 20 1 37 -3 37 -9z m5 -51 c5 -5 -9 -9 -33 -9 -30 0 -42 4 -42 15
0 11 8 13 33 8 17 -3 36 -10 42 -14z m2974 -64 c-12 -33 -39 -77 -61 -99 l-39
-41 35 52 c19 29 45 79 57 113 13 34 25 55 27 47 2 -8 -7 -40 -19 -72z m-6020
51 c-2 -2 -47 -6 -99 -9 -54 -3 -80 -2 -60 3 36 8 167 13 159 6z m267 -13 c-3
-10 -10 -61 -16 -113 -5 -52 -13 -107 -16 -122 l-6 -28 -101 0 c-56 0 -156 -5
-222 -10 -66 -5 -212 -12 -325 -16 l-205 -7 -30 26 c-17 15 -24 27 -17 27 10
0 9 7 -4 30 -10 16 -16 32 -13 35 3 3 33 8 68 11 34 4 59 9 56 12 -6 7 -92 4
-117 -4 -27 -8 -22 25 5 35 12 5 63 14 112 20 50 7 180 25 290 41 110 16 236
34 280 40 91 13 258 37 263 39 2 0 1 -7 -2 -16z m4514 -48 c-6 -31 -14 -55
-16 -52 -2 2 1 29 7 61 7 31 14 54 16 52 3 -2 -1 -30 -7 -61z m-4987 38 c-7
-2 -21 -2 -30 0 -10 3 -4 5 12 5 17 0 24 -2 18 -5z m3251 -14 c17 -15 0 -20
-39 -11 -53 11 -61 36 -9 26 22 -3 43 -10 48 -15z m-3321 4 c-7 -2 -19 -2 -25
0 -7 3 -2 5 12 5 14 0 19 -2 13 -5z m4904 -13 c-3 -21 -17 -40 -17 -22 0 13
11 42 16 42 2 0 3 -9 1 -20z m-4984 3 c-7 -2 -19 -2 -25 0 -7 3 -2 5 12 5 14
0 19 -2 13 -5z m-60 -10 c-7 -2 -21 -2 -30 0 -10 3 -4 5 12 5 17 0 24 -2 18
-5z m5257 -19 c0 -14 -4 -23 -9 -20 -5 3 -7 15 -4 26 7 28 13 25 13 -6z
m-5333 10 c-3 -3 -12 -4 -19 -1 -8 3 -5 6 6 6 11 1 17 -2 13 -5z m3390 -127
c-2 -23 -3 -1 -3 48 0 50 1 68 3 42 2 -26 2 -67 0 -90z m152 97 c2 -2 -14 -4
-37 -4 -23 0 -42 4 -42 9 0 9 69 4 79 -5z m1830 -48 c-11 -32 -23 -55 -25 -53
-3 2 5 30 17 61 12 31 24 55 26 53 2 -3 -6 -30 -18 -61z m-59 -1 c-6 -15 -13
-25 -17 -21 -3 3 0 17 7 31 17 32 24 26 10 -10z m-4205 6 c-65 -29 -106 -71
-141 -145 -93 -193 -80 -416 30 -531 71 -75 158 -71 246 11 85 79 129 188 131
324 1 66 2 71 11 41 15 -52 -7 -195 -40 -254 -29 -54 -116 -143 -165 -169 -39
-21 -118 -23 -155 -4 -70 37 -127 138 -143 254 -31 221 101 490 241 491 21 1
19 -2 -15 -18z m2413 9 c6 0 12 -4 12 -10 0 -5 -16 -10 -35 -10 -26 0 -35 4
-35 16 0 12 6 15 23 10 12 -3 28 -6 35 -6z m1518 -78 c-29 -57 -111 -124 -183
-148 -100 -34 -235 3 -294 81 -21 28 -21 28 14 -4 20 -19 37 -30 37 -24 0 7
21 0 47 -14 35 -20 61 -27 107 -27 83 -1 144 30 226 115 36 36 66 67 68 68 1
0 -9 -21 -22 -47z m197 33 c-3 -9 -8 -14 -10 -11 -3 3 -2 9 2 15 9 16 15 13 8
-4z m-3193 -69 c0 -26 -10 -27 -367 -42 -152 -7 -153 -7 -153 15 0 19 6 21 53
22 45 1 392 21 447 26 15 1 20 -4 20 -21z m-833 -49 c35 -35 63 -120 63 -192
0 -77 -39 -165 -90 -209 -60 -50 -115 -44 -146 16 l-17 33 24 -21 c55 -49 86
-47 148 9 82 76 84 259 4 345 -29 31 -37 34 -69 29 -21 -4 -51 -19 -68 -34
l-30 -28 26 35 c50 68 98 73 155 17z m5508 -9 c-2 -13 -12 -66 -20 -118 -9
-52 -40 -214 -70 -360 -83 -411 -91 -511 -42 -545 45 -31 128 -5 175 55 24 31
66 113 81 161 10 32 19 39 77 62 l66 26 -6 -42 c-12 -75 -57 -210 -94 -281
-46 -88 -111 -154 -187 -191 -50 -25 -72 -30 -135 -30 -64 0 -82 4 -121 27
-107 63 -144 143 -143 313 1 113 23 252 70 435 13 52 24 103 24 113 0 16 -2
16 -31 2 -35 -18 -44 -36 -151 -305 -127 -318 -195 -438 -327 -574 -163 -168
-345 -255 -532 -256 -132 0 -226 43 -309 143 l-45 53 -39 -59 c-92 -143 -244
-270 -391 -327 -90 -35 -229 -35 -305 1 -31 14 -72 40 -92 58 -142 124 -162
387 -52 678 29 77 30 117 4 143 -26 26 -44 25 -105 -3 -123 -58 -274 -293
-335 -522 -24 -91 -63 -298 -81 -427 l-12 -87 -56 -11 c-31 -6 -91 -19 -133
-29 l-78 -17 0 35 c0 59 56 392 100 596 62 288 63 353 5 391 -41 27 -96 5
-166 -67 -99 -101 -166 -236 -222 -450 -37 -139 -107 -509 -107 -563 0 -14 -4
-28 -10 -31 -5 -3 -60 -19 -122 -34 -62 -16 -120 -30 -128 -32 -12 -3 -14 4
-12 34 2 21 -2 37 -8 37 -5 0 -10 -4 -10 -9 0 -18 -128 -102 -184 -122 -65
-22 -163 -24 -219 -5 -52 19 -105 61 -136 111 l-27 42 -39 -59 c-45 -67 -149
-169 -198 -195 -55 -28 -131 -42 -178 -32 -41 10 -99 38 -99 49 -1 3 -9 16
-20 29 l-20 23 -50 -45 c-103 -93 -214 -119 -312 -75 -191 88 -238 399 -117
770 99 305 308 528 494 528 37 0 76 -8 102 -19 44 -20 53 -19 53 10 0 19 38
34 177 69 99 24 102 24 97 3 -44 -201 -194 -996 -194 -1028 0 -87 71 -74 227
43 57 43 63 50 63 84 0 70 22 192 65 367 58 236 61 256 41 286 -9 14 -34 34
-55 45 -51 26 -71 55 -71 105 0 54 38 112 102 156 48 32 55 34 138 34 80 0 89
-2 124 -29 92 -69 96 -159 21 -456 -82 -330 -107 -488 -86 -542 5 -15 25 -35
43 -44 42 -22 100 -9 219 47 l87 41 12 77 c26 170 196 981 208 993 12 12 292
71 300 64 3 -4 -1 -42 -10 -84 -8 -42 -14 -79 -12 -81 3 -3 19 13 36 35 117
145 261 233 382 234 123 0 199 -73 200 -192 1 -32 3 -58 6 -58 3 0 26 27 50
61 131 181 342 314 485 308 52 -3 69 2 135 34 133 66 239 60 316 -17 64 -63
79 -144 49 -261 -57 -217 -269 -457 -476 -537 -58 -22 -59 -24 -59 -61 0 -77
49 -142 126 -167 48 -16 133 2 204 42 72 41 188 155 251 245 l53 76 -3 96
c-10 421 340 860 631 791 63 -16 131 -78 147 -136 66 -237 -191 -595 -482
-674 l-49 -13 7 -36 c10 -59 50 -124 93 -155 158 -112 459 64 667 390 54 84
195 374 195 400 0 2 -18 8 -39 14 -48 13 -97 66 -107 114 -15 81 55 194 150
244 42 22 64 27 126 27 65 0 82 -4 124 -29 l49 -29 20 27 c10 15 33 34 51 43
44 23 136 52 169 52 23 1 27 -2 22 -21z m-5549 -60 l19 -22 -25 17 c-13 9 -33
17 -44 17 -19 0 -19 -1 -2 -13 37 -27 49 -164 16 -197 -31 -31 -57 -25 -79 17
-28 55 -1 123 49 123 22 0 28 4 24 15 -10 25 -50 17 -78 -16 -43 -51 -33 -141
20 -175 25 -17 28 -17 55 -1 16 9 29 12 29 6 0 -16 -63 -49 -93 -49 -23 0 -31
7 -47 43 -52 114 3 256 101 257 25 0 42 -7 55 -22z m164 -170 c-10 -64 -40
-138 -73 -180 -28 -36 -26 -17 4 30 42 66 59 132 60 231 1 83 2 84 11 37 6
-32 5 -73 -2 -118z m1510 41 c-25 -12 -81 -35 -125 -52 -86 -33 -104 -35 -362
-39 -146 -3 -152 -2 -135 15 15 14 45 20 153 27 74 5 172 10 219 10 64 1 107
8 175 30 107 34 138 38 75 9z m1819 12 c28 -18 -102 -46 -1014 -220 -404 -77
-601 -108 -612 -98 -24 24 197 75 997 227 510 97 599 110 629 91z m-3057 -173
c-6 -6 -7 0 -4 19 5 21 7 23 10 9 2 -10 0 -22 -6 -28z m-122 -15 c-11 -17 -11
-17 -6 0 3 10 7 26 7 35 1 15 2 15 6 0 2 -10 -1 -25 -7 -35z m-63 -15 c-3 -8
-6 -5 -6 6 -1 11 2 17 5 13 3 -3 4 -12 1 -19z m-453 -14 c3 -8 2 -12 -4 -9 -6
3 -10 10 -10 16 0 14 7 11 14 -7z m563 -16 c-3 -8 -6 -5 -6 6 -1 11 2 17 5 13
3 -3 4 -12 1 -19z m-444 -79 c17 -1 41 0 52 1 16 1 18 -1 8 -11 -18 -18 -76
-16 -106 4 -14 9 -35 31 -48 49 l-23 33 42 -37 c29 -26 52 -38 75 -39z m1397
-17 l0 -28 -242 -21 c-134 -11 -245 -19 -247 -17 -2 2 8 17 23 34 14 17 26 36
26 40 0 5 60 11 133 13 72 1 171 4 220 5 l87 2 0 -28z m155 -61 c-16 -15 -240
-66 -555 -126 -162 -32 -389 -77 -505 -101 -255 -55 -354 -74 -377 -74 -13 0
-18 8 -18 29 l0 28 343 67 c188 36 437 84 552 105 350 65 583 95 560 72z
m-1820 -69 c124 -56 185 -180 141 -285 -39 -95 -189 -138 -254 -74 -23 23 -24
27 -12 80 16 69 7 117 -28 149 -37 35 -63 41 -114 28 -117 -31 -285 -186 -357
-329 -101 -199 -73 -397 59 -426 26 -6 38 1 100 57 155 139 291 191 410 158
66 -18 120 -93 120 -166 0 -95 -98 -204 -183 -204 -32 0 -53 26 -67 83 -15 58
-32 60 -92 11 -87 -73 -156 -186 -202 -332 -23 -73 -56 -231 -56 -267 0 -9 32
-14 113 -17 124 -6 180 -22 447 -132 207 -85 278 -101 445 -100 96 0 164 6
215 17 144 34 134 33 120 6 -7 -13 -45 -54 -83 -92 -166 -159 -393 -214 -613
-146 -69 21 -230 97 -302 143 -126 80 -338 157 -355 129 -3 -4 4 -35 14 -68
10 -33 19 -80 19 -104 0 -36 -6 -49 -34 -77 -29 -29 -41 -34 -83 -34 -87 0
-154 66 -189 186 -22 78 -14 293 16 409 28 111 82 247 130 329 22 37 40 69 40
71 0 1 -26 5 -58 8 -139 12 -232 102 -263 254 -32 155 56 360 223 519 123 116
237 180 401 225 101 27 261 22 332 -9z m5334 -1030 c31 -24 31 -75 1 -107 -41
-44 -111 -24 -125 36 -5 19 0 34 20 57 31 37 70 42 104 14z m-739 -173 c0
-110 2 -120 18 -115 9 2 33 7 52 11 19 4 43 9 53 11 14 5 17 -1 17 -35 0 -38
-2 -41 -37 -50 -97 -26 -175 -41 -183 -36 -6 4 -10 73 -10 160 l0 154 33 10
c59 17 57 21 57 -110z m-372 -209 c4 0 32 7 62 15 78 21 80 20 80 -24 l0 -39
-108 -26 c-60 -14 -111 -26 -115 -26 -4 0 -7 72 -7 160 l0 160 28 6 c15 3 32
7 37 8 6 2 11 -43 13 -116 1 -65 6 -118 10 -118z m-308 10 c38 -77 70 -141 70
-143 0 -10 -85 -28 -88 -19 -1 5 -8 17 -15 27 -12 15 -18 16 -72 3 -53 -12
-60 -16 -73 -49 -12 -32 -20 -38 -54 -43 -23 -4 -42 -5 -44 -3 -2 2 14 48 35
103 21 54 51 132 66 172 27 73 44 90 87 91 13 1 37 -38 88 -139z m-392 28 c-3
-39 -5 -42 -43 -52 l-40 -12 -3 -122 c-3 -121 -3 -123 -28 -132 -53 -21 -54
-20 -54 111 l0 121 -45 -6 -45 -7 0 39 0 40 123 30 c67 16 126 30 130 31 5 0
7 -18 5 -41z m-408 -226 l0 -159 -26 -12 c-29 -13 -27 -14 -133 77 l-51 44 0
-85 0 -84 -31 -7 c-62 -12 -59 -20 -59 153 0 156 0 159 23 165 43 11 55 6 118
-55 l64 -62 5 84 c5 78 6 84 30 90 63 17 60 24 60 -149z m-490 8 c0 -24 -5
-42 -12 -44 -7 -3 -40 -10 -73 -18 -50 -11 -61 -17 -63 -35 -4 -27 -3 -27 68
-8 73 20 70 21 70 -24 l0 -39 -62 -14 c-54 -11 -63 -17 -66 -37 -3 -21 -1 -22
30 -16 18 4 50 13 71 20 30 10 37 10 37 0 0 -7 3 -26 6 -42 l6 -30 -106 -27
c-58 -14 -112 -26 -121 -26 -13 0 -15 23 -15 163 l0 163 103 26 c134 34 127
35 127 -12z m-439 -122 c25 -41 20 -98 -11 -141 l-22 -29 31 -45 c18 -25 31
-46 29 -48 -7 -5 -72 -25 -82 -25 -6 0 -22 18 -36 40 -20 32 -30 40 -50 38
-23 -3 -25 -8 -28 -54 -3 -51 -3 -52 -42 -62 l-40 -10 0 164 0 163 63 20 c34
10 86 20 115 20 49 1 54 -1 73 -31z m-811 -258 c27 -27 25 -71 -5 -104 -30
-32 -70 -34 -102 -4 -29 27 -30 67 -2 102 26 33 79 36 109 6z"/>
        <path d="M5660 7026 c0 -7 102 -37 108 -32 2 3 -15 10 -38 16 -23 6 -48 14
-56 17 -8 3 -14 3 -14 -1z"/>
        <path d="M5795 6980 c27 -12 43 -12 25 0 -8 5 -22 9 -30 9 -10 0 -8 -3 5 -9z"/>
        <path d="M5967 6919 c6 -6 35 -14 63 -17 72 -7 73 -22 1 -22 -53 0 -63 -3 -86
-27 -14 -15 -25 -37 -25 -49 0 -28 26 -92 54 -129 12 -16 53 -82 91 -145 38
-63 80 -130 94 -148 33 -41 87 -66 186 -87 44 -9 82 -19 85 -22 11 -12 -163
23 -214 43 -13 5 -17 4 -12 -4 10 -17 85 -37 248 -67 79 -15 213 -42 298 -61
85 -18 193 -41 240 -49 47 -9 112 -23 146 -31 70 -16 154 -19 154 -4 0 6 -8
11 -17 11 -12 1 -9 4 7 9 61 17 68 23 79 59 6 21 11 47 11 57 0 23 -60 119
-147 237 -66 88 -74 111 -31 84 12 -8 39 -17 58 -20 34 -6 34 -5 -10 15 -25
11 -57 21 -72 21 -16 0 -28 4 -28 7 0 10 -82 45 -155 65 -33 10 -71 23 -85 31
-22 11 -198 64 -215 64 -3 0 -4 -4 -1 -9 6 -9 -250 50 -294 68 -31 12 -13 14
26 2 53 -16 235 -53 239 -49 5 4 -170 50 -365 97 -41 10 -111 28 -155 40 -44
13 -91 25 -105 27 -14 2 -36 7 -50 10 -20 4 -22 3 -13 -7z m223 -59 l25 -8
-25 0 c-14 0 -34 3 -45 8 l-20 9 20 -1 c11 0 31 -4 45 -8z m57 -16 c-3 -3 -12
-4 -19 -1 -8 3 -5 6 6 6 11 1 17 -2 13 -5z m103 -25 c9 -5 -2 -6 -25 -2 -22 3
-47 9 -55 14 -9 5 2 6 25 2 22 -3 47 -9 55 -14z m-188 -14 c101 -24 790 -202
867 -224 19 -6 49 -21 68 -33 44 -30 223 -291 223 -326 0 -14 -40 -52 -54 -52
-5 0 -2 6 9 13 28 21 9 37 -44 37 -26 0 -132 18 -237 39 -616 129 -709 152
-738 181 -20 22 -20 22 -1 15 25 -10 174 -45 360 -84 77 -17 230 -50 340 -74
278 -62 316 -69 321 -64 9 9 -37 89 -107 188 -53 76 -78 101 -111 117 -24 11
-261 76 -527 143 -509 129 -518 130 -514 77 1 -14 32 -74 69 -134 109 -176
139 -232 113 -209 -28 26 -186 266 -211 323 -18 40 -18 45 -4 68 21 31 40 30
178 -1z m161 -111 c122 -30 330 -83 462 -116 241 -60 275 -72 308 -112 24 -28
111 -155 126 -183 24 -45 3 -21 -39 45 -66 103 -110 153 -148 169 -20 8 -193
55 -386 103 -428 108 -549 140 -555 146 -9 8 13 3 232 -52z m150 -431 c-7 -2
-19 -2 -25 0 -7 3 -2 5 12 5 14 0 19 -2 13 -5z m94 -19 c-3 -3 -12 -4 -19 -1
-8 3 -5 6 6 6 11 1 17 -2 13 -5z m40 -10 c-3 -3 -12 -4 -19 -1 -8 3 -5 6 6 6
11 1 17 -2 13 -5z m100 -20 c-3 -3 -12 -4 -19 -1 -8 3 -5 6 6 6 11 1 17 -2 13
-5z m66 -11 c-7 -2 -21 -2 -30 0 -10 3 -4 5 12 5 17 0 24 -2 18 -5z"/>
        <path d="M6155 6920 c27 -12 43 -12 25 0 -8 5 -22 9 -30 9 -10 0 -8 -3 5 -9z"/>
        <path d="M6208 6903 c7 -3 16 -2 19 1 4 3 -2 6 -13 5 -11 0 -14 -3 -6 -6z"/>
        <path d="M6748 6753 c7 -3 16 -2 19 1 4 3 -2 6 -13 5 -11 0 -14 -3 -6 -6z"/>
        <path d="M6825 6730 c11 -5 27 -9 35 -9 9 0 8 4 -5 9 -11 5 -27 9 -35 9 -9 0
-8 -4 5 -9z"/>
        <path d="M6918 6703 c7 -3 16 -2 19 1 4 3 -2 6 -13 5 -11 0 -14 -3 -6 -6z"/>
        <path d="M6958 6693 c7 -3 16 -2 19 1 4 3 -2 6 -13 5 -11 0 -14 -3 -6 -6z"/>
        <path d="M7248 6493 c7 -3 16 -2 19 1 4 3 -2 6 -13 5 -11 0 -14 -3 -6 -6z"/>
        <path d="M7288 6483 c7 -3 16 -2 19 1 4 3 -2 6 -13 5 -11 0 -14 -3 -6 -6z"/>
        <path d="M7405 6460 c27 -12 43 -12 25 0 -8 5 -22 9 -30 9 -10 0 -8 -3 5 -9z"/>
        <path d="M6028 6283 c6 -2 18 -2 25 0 6 3 1 5 -13 5 -14 0 -19 -2 -12 -5z"/>
        <path d="M6130 6261 c18 -13 142 -35 161 -29 8 3 -20 10 -62 16 -42 6 -84 14
-95 18 -15 5 -16 4 -4 -5z"/>
        <path d="M6558 6173 c6 -2 18 -2 25 0 6 3 1 5 -13 5 -14 0 -19 -2 -12 -5z"/>
        <path d="M6601 6166 c2 -2 22 -6 44 -9 28 -5 34 -4 20 3 -19 8 -73 14 -64 6z"/>
        <path d="M6958 6093 c7 -3 16 -2 19 1 4 3 -2 6 -13 5 -11 0 -14 -3 -6 -6z"/>
        <path d="M7030 6080 c14 -4 34 -8 45 -8 16 0 15 2 -5 8 -14 4 -34 8 -45 8 -16
0 -15 -2 5 -8z"/>
        <path d="M4975 6821 c-38 -16 -115 -46 -170 -66 -55 -21 -126 -51 -157 -67
-48 -26 -60 -37 -80 -81 -21 -48 -23 -65 -22 -232 0 -170 1 -183 23 -222 22
-38 41 -53 82 -66 19 -6 85 12 309 83 147 47 169 57 202 91 52 54 61 107 56
315 -4 178 -8 195 -56 247 -35 37 -93 36 -187 -2z m159 -52 c26 -30 26 -32 26
-210 0 -240 -12 -266 -137 -303 -32 -10 -107 -36 -166 -57 -174 -62 -218 -64
-252 -7 -17 29 -19 52 -20 198 0 234 -12 220 285 337 102 39 197 72 212 73 17
0 35 -10 52 -31z"/>
        <path d="M4865 6691 c-105 -43 -202 -85 -217 -95 -43 -28 -52 -72 -45 -228 6
-171 14 -188 84 -186 27 0 79 13 118 28 39 16 116 42 171 59 156 49 164 63
164 294 0 181 -8 208 -58 206 -15 0 -113 -36 -217 -78z m-55 -51 c-8 -5 -19
-10 -25 -10 -5 0 -3 5 5 10 8 5 20 10 25 10 6 0 3 -5 -5 -10z m-91 -34 c-2 -2
-15 -9 -29 -15 -24 -11 -24 -11 -6 3 16 13 49 24 35 12z m316 -292 c-37 -15
-150 -52 -153 -50 -2 2 18 12 45 21 26 9 57 21 68 25 11 5 27 9 35 9 8 -1 11
-2 5 -5z"/>
        <path d="M3119 5953 c-13 -15 -12 -15 9 -4 23 12 28 21 13 21 -5 0 -15 -7 -22
-17z"/>
        <path d="M3140 5925 c-14 -8 -20 -14 -14 -15 5 0 19 7 30 15 24 18 16 19 -16
0z"/>
        <path d="M3015 5651 c-6 -5 -37 -18 -70 -31 -243 -89 -275 -107 -300 -172 -14
-37 -15 -84 -13 -329 l3 -286 28 -36 c43 -56 52 -58 159 -37 154 32 220 56
255 92 67 71 68 74 71 385 2 174 -1 296 -7 320 -19 69 -94 125 -126 94z m64
-77 c20 -26 21 -39 21 -302 0 -375 1 -373 -224 -437 -146 -42 -161 -41 -192
22 -17 34 -19 63 -19 288 0 338 -16 311 235 407 69 26 133 48 142 48 9 0 26
-12 37 -26z"/>
        <path d="M2955 5539 c-212 -81 -237 -92 -253 -118 -15 -22 -17 -56 -15 -280 2
-232 4 -258 21 -281 11 -14 28 -26 40 -28 34 -5 249 67 282 94 16 14 34 42 40
62 13 49 13 537 0 563 -14 25 -20 24 -115 -12z m47 -601 c-6 -6 -26 -17 -44
-23 -104 -39 -152 -55 -155 -52 -3 3 71 35 172 73 40 16 41 16 27 2z m-219
-85 c-7 -2 -19 -2 -25 0 -7 3 -2 5 12 5 14 0 19 -2 13 -5z"/>
        <path d="M4332 5630 c0 -19 2 -27 5 -17 2 9 2 25 0 35 -3 9 -5 1 -5 -18z"/>
        <path d="M1500 5608 c-230 -111 -428 -212 -457 -234 -34 -25 -67 -74 -78 -114
-3 -14 9 1 27 33 18 31 43 64 56 73 22 15 253 132 372 187 78 37 187 97 175
96 -5 0 -48 -19 -95 -41z"/>
        <path d="M4340 5430 c-3 -30 -3 -96 0 -147 4 -79 7 -91 20 -83 10 6 11 10 3
10 -9 0 -13 37 -15 138 -2 84 -5 116 -8 82z"/>
        <path d="M2300 5355 c0 -2 10 -10 23 -16 20 -11 21 -11 8 4 -13 16 -31 23 -31
12z"/>
        <path d="M2005 5259 c-126 -49 -298 -117 -382 -149 -87 -34 -160 -57 -170 -54
-13 4 -15 3 -5 -4 11 -7 6 -12 -17 -20 -25 -9 -30 -8 -24 1 4 7 -7 1 -24 -13
-74 -60 -86 -125 -81 -446 3 -204 6 -244 20 -271 23 -41 55 -63 93 -63 51 0
570 114 763 167 65 18 115 60 148 124 l24 48 0 336 c0 360 -3 385 -51 419 -13
9 -33 16 -44 16 -11 -1 -123 -41 -250 -91z m287 9 c10 -18 13 -101 13 -348 -1
-364 -1 -367 -73 -415 -36 -24 -90 -38 -342 -90 -209 -43 -357 -81 -335 -87
11 -3 -2 -4 -30 -1 -34 3 -46 2 -36 -5 10 -7 -1 -11 -40 -14 -41 -4 -58 -1
-72 12 -30 28 -40 128 -33 360 7 238 16 273 71 299 90 44 805 310 832 310 23
1 36 -5 45 -21z"/>
        <path d="M2030 5184 c-107 -42 -289 -111 -405 -155 -115 -43 -218 -88 -230
-99 -19 -20 -20 -34 -23 -295 l-3 -274 23 -15 c20 -13 31 -14 78 -2 30 7 102
24 160 36 58 12 128 28 155 36 28 7 118 27 200 44 169 34 247 67 276 114 18
29 19 53 19 343 0 171 -3 318 -6 327 -3 9 -16 16 -28 16 -11 0 -109 -35 -216
-76z m-133 -80 c-3 -3 -12 -4 -19 -1 -8 3 -5 6 6 6 11 1 17 -2 13 -5z m-398
-148 c-9 -8 -99 -44 -99 -40 0 6 81 43 94 44 5 0 7 -2 5 -4z m406 -486 c-3 -5
-14 -10 -23 -10 -15 0 -15 2 -2 10 20 13 33 13 25 0z"/>
        <path d="M4344 5040 c0 -63 1 -89 3 -57 2 31 2 83 0 115 -2 31 -3 5 -3 -58z"/>
        <path d="M2388 4675 c-4 -4 -10 -34 -14 -65 -7 -67 -50 -132 -122 -187 -24
-18 -39 -33 -34 -33 12 0 82 52 109 81 34 38 74 137 71 176 -2 19 -6 32 -10
28z"/>
        <path d="M2178 4383 c7 -3 16 -2 19 1 4 3 -2 6 -13 5 -11 0 -14 -3 -6 -6z"/>
        <path d="M2128 4373 c6 -2 18 -2 25 0 6 3 1 5 -13 5 -14 0 -19 -2 -12 -5z"/>
        <path d="M2025 4355 c-53 -17 -34 -18 35 0 30 7 44 13 30 13 -14 0 -43 -5 -65
-13z"/>
        <path d="M1558 4243 c7 -3 16 -2 19 1 4 3 -2 6 -13 5 -11 0 -14 -3 -6 -6z"/>
        <path d="M1470 4230 c-34 -7 -34 -7 -5 -8 17 0 41 4 55 8 33 11 0 11 -50 0z"/>
        <path d="M3870 6158 c-48 -23 -126 -56 -203 -88 -96 -40 -131 -68 -152 -123
-14 -37 -16 -93 -13 -444 l3 -403 27 -26 c25 -26 29 -26 75 -16 26 5 81 20
121 32 41 12 75 20 78 18 5 -6 -107 -46 -191 -69 -56 -15 -61 -18 -25 -13 67
8 266 77 244 85 -14 4 -10 8 17 13 58 10 100 53 110 111 9 58 12 768 3 813 -3
17 -13 33 -21 37 -25 9 -334 -120 -361 -151 l-23 -26 3 -375 c3 -345 4 -376
21 -388 15 -10 37 -7 140 22 150 42 189 60 199 93 6 21 7 19 5 -10 -3 -48 -40
-70 -179 -108 -180 -48 -177 -48 -194 -6 -12 30 -14 98 -12 421 l3 385 32 27
c17 14 105 55 195 90 160 63 163 63 192 47 16 -9 30 -15 32 -13 2 2 -5 19 -15
38 -15 27 -25 34 -52 36 -19 1 -45 -3 -59 -9z m47 -4 c-3 -3 -12 -4 -19 -1 -8
3 -5 6 6 6 11 1 17 -2 13 -5z"/>
        <path d="M4011 5264 c0 -11 3 -14 6 -6 3 7 2 16 -1 19 -3 4 -6 -2 -5 -13z"/>
        <path d="M3945 5120 c-16 -11 -25 -20 -20 -20 6 0 24 9 40 20 17 11 26 20 20
20 -5 0 -23 -9 -40 -20z"/>
        <path d="M3803 5023 c9 -2 23 -2 30 0 6 3 -1 5 -18 5 -16 0 -22 -2 -12 -5z"/>
        <path d="M3725 5013 c-11 -3 -24 -9 -29 -14 -15 -14 17 -11 55 6 33 14 19 19
-26 8z"/>
        <path d="M3605 4965 c-39 -17 -21 -18 25 0 19 7 28 14 20 14 -8 0 -28 -6 -45
-14z"/>
        <path d="M3515 4940 c-13 -5 -14 -9 -5 -9 8 0 24 4 35 9 13 5 14 9 5 9 -8 0
-24 -4 -35 -9z"/>
        <path d="M3465 4920 c-3 -6 1 -7 9 -4 18 7 21 14 7 14 -6 0 -13 -4 -16 -10z"/>
        <path d="M3610 4900 c-21 -7 -21 -8 -5 -9 11 0 27 4 35 9 18 11 5 11 -30 0z"/>
        <path d="M3513 4876 c-38 -10 -67 -26 -49 -26 14 0 116 31 116 36 0 6 -19 3
-67 -10z"/>
        <path d="M3518 4834 l-36 -16 5 -56 c9 -88 17 -104 50 -96 48 12 53 21 53 105
0 89 -3 91 -72 63z"/>
        <path d="M3998 4553 c6 -2 18 -2 25 0 6 3 1 5 -13 5 -14 0 -19 -2 -12 -5z"/>
        <path d="M3365 6000 c-3 -5 -1 -10 4 -10 6 0 11 5 11 10 0 6 -2 10 -4 10 -3 0
-8 -4 -11 -10z"/>
        <path d="M3350 4940 c0 -5 7 -7 15 -4 8 4 15 8 15 10 0 2 -7 4 -15 4 -8 0 -15
-4 -15 -10z"/>
        <path d="M6015 4923 c-55 -7 -103 -19 -107 -26 -4 -7 -8 -29 -8 -49 l0 -38 47
0 c41 0 134 12 201 26 17 3 22 11 22 35 0 40 -16 69 -38 68 -9 -1 -62 -8 -117
-16z m49 -38 c-90 -22 -124 -26 -124 -17 0 12 81 30 135 30 l40 0 -51 -13z"/>
        <path d="M5758 4713 c7 -3 16 -2 19 1 4 3 -2 6 -13 5 -11 0 -14 -3 -6 -6z"/>
        <path d="M4970 4647 c-29 -10 -36 -18 -43 -52 -13 -61 1 -183 24 -206 16 -16
23 -17 51 -7 18 6 36 16 40 22 4 6 8 63 8 127 0 97 -3 118 -16 123 -20 8 -22
7 -64 -7z m10 -41 c-13 -17 -10 -167 4 -201 9 -19 8 -19 -10 -2 -15 14 -20 35
-23 102 -3 95 1 115 25 115 13 0 14 -3 4 -14z"/>
        <path d="M6260 4396 c0 -2 8 -10 18 -17 15 -13 16 -12 3 4 -13 16 -21 21 -21
13z"/>
        <path d="M4998 4183 c6 -2 18 -2 25 0 6 3 1 5 -13 5 -14 0 -19 -2 -12 -5z"/>
        <path d="M4968 4113 c7 -3 16 -2 19 1 4 3 -2 6 -13 5 -11 0 -14 -3 -6 -6z"/>
        <path d="M5335 4109 c-16 -4 -38 -7 -50 -5 -11 2 -14 1 -7 -1 7 -3 10 -9 7
-14 -8 -11 -8 -11 40 6 26 9 58 12 94 8 40 -5 52 -3 47 5 -8 14 -87 14 -131 1z"/>
        <path d="M6570 4730 c-48 -8 -134 -40 -127 -46 4 -4 47 3 135 22 16 3 22 0 23
-13 0 -13 3 -11 11 7 10 23 12 19 20 -40 4 -36 6 -71 3 -77 -3 -10 20 -13 97
-13 110 0 124 12 25 20 l-62 5 -3 53 -3 52 85 0 c66 0 86 3 86 14 0 8 -15 16
-37 20 -50 8 -196 6 -253 -4z"/>
        <path d="M6612 4600 c0 -19 2 -27 5 -17 2 9 2 25 0 35 -3 9 -5 1 -5 -18z"/>
        <path d="M6758 4383 c7 -3 16 -2 19 1 4 3 -2 6 -13 5 -11 0 -14 -3 -6 -6z"/>
        <path d="M2955 4209 c-179 -36 -196 -41 -223 -64 -27 -23 -27 -25 -27 -142 l0
-118 65 1 c114 3 372 41 389 59 13 12 16 38 16 121 l0 106 -33 29 c-38 34 -56
35 -187 8z"/>
        <path d="M5218 3943 c7 -3 16 -2 19 1 4 3 -2 6 -13 5 -11 0 -14 -3 -6 -6z"/>
        <path d="M5008 3923 c6 -2 18 -2 25 0 6 3 1 5 -13 5 -14 0 -19 -2 -12 -5z"/>
        <path d="M5255 3730 c19 -8 153 -14 144 -6 -2 2 -40 6 -84 9 -48 3 -72 2 -60
-3z"/>
        <path d="M4998 3723 c6 -2 18 -2 25 0 6 3 1 5 -13 5 -14 0 -19 -2 -12 -5z"/>
        <path d="M4338 3749 c-16 -9 -18 -27 -18 -154 l0 -145 35 0 35 0 0 155 c0 141
-2 155 -17 155 -10 0 -26 -5 -35 -11z"/>
        <path d="M3463 3730 c0 -36 2 -50 4 -32 2 17 2 47 0 65 -2 17 -4 3 -4 -33z"/>
        <path d="M5825 3767 c-20 -20 -36 -48 -40 -70 -24 -128 83 -217 164 -136 60
60 65 156 11 211 -41 41 -91 39 -135 -5z m108 -25 c46 -48 32 -123 -33 -171
l-32 -23 -32 31 c-27 27 -31 38 -30 83 0 44 5 55 32 80 40 35 61 35 95 0z"/>
        <path d="M2702 3587 c-2 -134 4 -171 32 -189 24 -16 26 -7 4 22 -19 27 -23 47
-28 168 l-7 137 -1 -138z"/>
        <path d="M3168 3632 c-4 -60 -11 -98 -23 -118 l-18 -29 26 30 c24 27 26 38 27
118 0 48 -2 87 -4 87 -2 0 -5 -40 -8 -88z"/>
        <path d="M1835 3540 l-40 -6 37 -8 c29 -6 41 -4 53 8 18 18 17 18 -50 6z"/>
        <path d="M1705 3519 l-50 -6 63 -1 c34 -1 62 0 62 2 0 9 -28 11 -75 5z"/>
        <path d="M1378 3473 c7 -3 16 -2 19 1 4 3 -2 6 -13 5 -11 0 -14 -3 -6 -6z"/>
        <path d="M1538 3473 c7 -3 16 -2 19 1 4 3 -2 6 -13 5 -11 0 -14 -3 -6 -6z"/>
        <path d="M1473 3463 c9 -2 25 -2 35 0 9 3 1 5 -18 5 -19 0 -27 -2 -17 -5z"/>
        <path d="M1368 3453 c7 -3 16 -2 19 1 4 3 -2 6 -13 5 -11 0 -14 -3 -6 -6z"/>
        <path d="M1308 3443 c6 -2 18 -2 25 0 6 3 1 5 -13 5 -14 0 -19 -2 -12 -5z"/>
        <path d="M6560 2848 c-50 -54 -112 -182 -143 -293 -29 -105 -39 -155 -30 -155
16 0 105 65 136 99 98 109 164 302 127 372 -17 30 -49 22 -90 -23z"/>
        <path d="M5706 2690 c-49 -55 -107 -176 -155 -325 -63 -197 -63 -198 14 -145
142 98 280 378 234 475 -21 45 -49 43 -93 -5z"/>
        <path d="M2643 2053 c-140 -149 -260 -537 -223 -719 14 -66 53 -114 93 -114
61 0 130 106 167 255 64 260 97 551 68 605 -23 43 -46 37 -105 -27z"/>
        <path d="M7708 2083 c18 -2 45 -2 60 0 15 2 0 4 -33 4 -33 0 -45 -2 -27 -4z"/>
        <path d="M5783 1226 c-11 -34 -10 -36 13 -36 27 0 32 25 11 54 -12 16 -14 15
-24 -18z"/>
        <path d="M4023 875 c-13 -9 -23 -27 -23 -40 0 -22 3 -24 33 -18 51 9 69 22 65
46 -4 28 -44 34 -75 12z"/>
    </g>
</svg>
